<svg width="800" height="500" xmlns="http://www.w3.org/2000/svg">
  <!-- Title -->
  <text x="400" y="30" text-anchor="middle" font-family="Arial" font-size="20" font-weight="bold">Humanoid Nav2 Architecture</text>

  <!-- Global Planner -->
  <rect x="100" y="80" width="200" height="80" fill="#e3f2fd" stroke="#1976d2" stroke-width="2" rx="10"/>
  <text x="200" y="120" text-anchor="middle" font-family="Arial" font-size="14" font-weight="bold">Global Planner</text>
  <text x="200" y="135" text-anchor="middle" font-family="Arial" font-size="12">(NavFn, A*, etc.)</text>

  <!-- Local Planner -->
  <rect x="500" y="80" width="200" height="80" fill="#e8f5e8" stroke="#388e3c" stroke-width="2" rx="10"/>
  <text x="600" y="120" text-anchor="middle" font-family="Arial" font-size="14" font-weight="bold">Local Planner</text>
  <text x="600" y="135" text-anchor="middle" font-family="Arial" font-size="12">(TEB, DWA, etc.)</text>

  <!-- Costmap Layers -->
  <rect x="100" y="200" width="600" height="80" fill="#fff3e0" stroke="#f57c00" stroke-width="2" rx="10"/>
  <text x="400" y="240" text-anchor="middle" font-family="Arial" font-size="14" font-weight="bold">Costmap Layers</text>
  <text x="400" y="255" text-anchor="middle" font-family="Arial" font-size="12">Static, Inflation, Obstacles, Voxel</text>

  <!-- Controller Server -->
  <rect x="100" y="320" width="200" height="80" fill="#f3e5f5" stroke="#7b1fa2" stroke-width="2" rx="10"/>
  <text x="200" y="360" text-anchor="middle" font-family="Arial" font-size="14" font-weight="bold">Controller Server</text>
  <text x="200" y="375" text-anchor="middle" font-family="Arial" font-size="12">Trajectory Control</text>

  <!-- Behavior Trees -->
  <rect x="300" y="320" width="200" height="80" fill="#e0f7fa" stroke="#006064" stroke-width="2" rx="10"/>
  <text x="400" y="360" text-anchor="middle" font-family="Arial" font-size="14" font-weight="bold">Behavior Trees</text>
  <text x="400" y="375" text-anchor="middle" font-family="Arial" font-size="12">Navigation Logic</text>

  <!-- Robot Interface -->
  <rect x="500" y="320" width="200" height="80" fill="#f1f8e9" stroke="#689f38" stroke-width="2" rx="10"/>
  <text x="600" y="360" text-anchor="middle" font-family="Arial" font-size="14" font-weight="bold">Robot Interface</text>
  <text x="600" y="375" text-anchor="middle" font-family="Arial" font-size="12">Velocity Commands</text>

  <!-- Sensors & Perception -->
  <rect x="50" y="420" width="700" height="60" fill="#ffebee" stroke="#d32f2f" stroke-width="2" rx="10"/>
  <text x="400" y="455" text-anchor="middle" font-family="Arial" font-size="14" font-weight="bold">Sensors & Perception (LiDAR, Cameras, IMU)</text>

  <!-- Arrows showing data flow -->
  <line x1="300" y1="120" x2="500" y2="120" stroke="#000" stroke-width="2" marker-end="url(#arrow)"/>
  <line x1="400" y1="160" x2="400" y2="200" stroke="#000" stroke-width="2" marker-end="url(#arrow)"/>
  <line x1="200" y1="280" x2="200" y2="320" stroke="#000" stroke-width="2" marker-end="url(#arrow)"/>
  <line x1="400" y1="280" x2="400" y2="320" stroke="#000" stroke-width="2" marker-end="url(#arrow)"/>
  <line x1="600" y1="280" x2="600" y2="320" stroke="#000" stroke-width="2" marker-end="url(#arrow)"/>
  <line x1="200" y1="400" x2="100" y2="420" stroke="#000" stroke-width="2" marker-end="url(#arrow)"/>
  <line x1="400" y1="400" x2="400" y2="420" stroke="#000" stroke-width="2" marker-end="url(#arrow)"/>
  <line x1="600" y1="400" x2="700" y2="420" stroke="#000" stroke-width="2" marker-end="url(#arrow)"/>

  <!-- Labels -->
  <text x="50" y="480" text-anchor="start" font-family="Arial" font-size="10">Path Planning → Trajectory Control → Robot Motion</text>

  <!-- Arrow marker definition -->
  <defs>
    <marker id="arrow" markerWidth="10" markerHeight="10" refX="6" refY="3" orient="auto" markerUnits="strokeWidth">
      <path d="M0,0 L0,6 L9,3 z" fill="#000" />
    </marker>
  </defs>
</svg>