<svg width="800" height="400" xmlns="http://www.w3.org/2000/svg">
  <!-- Title -->
  <text x="400" y="30" text-anchor="middle" font-family="Arial" font-size="20" font-weight="bold">Physics Simulation Parameters</text>

  <!-- Physics Engine -->
  <rect x="100" y="80" width="200" height="80" fill="#e3f2fd" stroke="#1976d2" stroke-width="2" rx="10"/>
  <text x="200" y="120" text-anchor="middle" font-family="Arial" font-size="14" font-weight="bold">Physics Engine</text>
  <text x="200" y="135" text-anchor="middle" font-family="Arial" font-size="12">(ODE, Bullet, etc.)</text>

  <!-- Parameters -->
  <rect x="400" y="80" width="300" height="250" fill="#f3e5f5" stroke="#7b1fa2" stroke-width="2" rx="10"/>
  <text x="550" y="110" text-anchor="middle" font-family="Arial" font-size="14" font-weight="bold">Physics Parameters</text>

  <!-- Gravity -->
  <rect x="420" y="130" width="260" height="30" fill="#e0f7fa" stroke="#00838f" stroke-width="1"/>
  <text x="430" y="150" font-family="Arial" font-size="12">Gravity: -9.81 m/s²</text>

  <!-- Solver -->
  <rect x="420" y="170" width="260" height="30" fill="#e0f7fa" stroke="#00838f" stroke-width="1"/>
  <text x="430" y="190" font-family="Arial" font-size="12">Solver: Iterative (50 iterations)</text>

  <!-- Time Step -->
  <rect x="420" y="210" width="260" height="30" fill="#e0f7fa" stroke="#00838f" stroke-width="1"/>
  <text x="430" y="230" font-family="Arial" font-size="12">Time Step: 1ms (0.001s)</text>

  <!-- ERP/CFM -->
  <rect x="420" y="250" width="260" height="30" fill="#e0f7fa" stroke="#00838f" stroke-width="1"/>
  <text x="430" y="270" font-family="Arial" font-size="12">ERP: 0.2, CFM: 0.0</text>

  <!-- Constraints -->
  <rect x="420" y="290" width="260" height="30" fill="#e0f7fa" stroke="#00838f" stroke-width="1"/>
  <text x="430" y="310" font-family="Arial" font-size="12">Constraints: Joint limits, friction</text>

  <!-- Robot Model -->
  <rect x="100" y="250" width="200" height="80" fill="#e8f5e8" stroke="#388e3c" stroke-width="2" rx="10"/>
  <text x="200" y="290" text-anchor="middle" font-family="Arial" font-size="14" font-weight="bold">Robot Model</text>
  <text x="200" y="305" text-anchor="middle" font-family="Arial" font-size="12">(URDF/SDF, Mass, Inertia)</text>

  <!-- Arrows -->
  <line x1="300" y1="120" x2="400" y2="145" stroke="#000" stroke-width="2" marker-end="url(#arrow)"/>
  <line x1="300" y1="290" x2="400" y2="290" stroke="#000" stroke-width="2" marker-end="url(#arrow)"/>

  <!-- Arrow marker definition -->
  <defs>
    <marker id="arrow" markerWidth="10" markerHeight="10" refX="6" refY="3" orient="auto" markerUnits="strokeWidth">
      <path d="M0,0 L0,6 L9,3 z" fill="#000" />
    </marker>
  </defs>
</svg>