<svg width="800" height="500" xmlns="http://www.w3.org/2000/svg">
  <!-- Title -->
  <text x="400" y="30" text-anchor="middle" font-family="Arial" font-size="20" font-weight="bold">Simulation Stack for Humanoid Robotics</text>

  <!-- Hardware Layer -->
  <rect x="100" y="400" width="600" height="60" fill="#ffebee" stroke="#d32f2f" stroke-width="2" rx="10"/>
  <text x="400" y="435" text-anchor="middle" font-family="Arial" font-size="14" font-weight="bold">Hardware Layer (Real Robot)</text>

  <!-- Gazebo -->
  <rect x="100" y="320" width="200" height="60" fill="#e3f2fd" stroke="#1976d2" stroke-width="2" rx="10"/>
  <text x="200" y="355" text-anchor="middle" font-family="Arial" font-size="14" font-weight="bold">Gazebo</text>

  <!-- Isaac Sim -->
  <rect x="300" y="320" width="200" height="60" fill="#e1f5fe" stroke="#0277bd" stroke-width="2" rx="10"/>
  <text x="400" y="355" text-anchor="middle" font-family="Arial" font-size="14" font-weight="bold">Isaac Sim</text>

  <!-- Unity -->
  <rect x="500" y="320" width="200" height="60" fill="#e0f7fa" stroke="#006064" stroke-width="2" rx="10"/>
  <text x="600" y="355" text-anchor="middle" font-family="Arial" font-size="14" font-weight="bold">Unity</text>

  <!-- ROS 2 Bridge -->
  <rect x="150" y="240" width="500" height="60" fill="#f3e5f5" stroke="#7b1fa2" stroke-width="2" rx="10"/>
  <text x="400" y="275" text-anchor="middle" font-family="Arial" font-size="14" font-weight="bold">ROS 2 Bridge &amp; Interfaces</text>

  <!-- Perception Stack -->
  <rect x="200" y="160" width="400" height="60" fill="#fff3e0" stroke="#f57c00" stroke-width="2" rx="10"/>
  <text x="400" y="195" text-anchor="middle" font-family="Arial" font-size="14" font-weight="bold">Perception Stack (VSLAM, Detection)</text>

  <!-- Control Stack -->
  <rect x="250" y="80" width="300" height="60" fill="#e8f5e8" stroke="#388e3c" stroke-width="2" rx="10"/>
  <text x="400" y="115" text-anchor="middle" font-family="Arial" font-size="14" font-weight="bold">Control Stack (Navigation, Manipulation)</text>

  <!-- Arrow markers -->
  <defs>
    <marker id="arrow" markerWidth="10" markerHeight="10" refX="6" refY="3" orient="auto" markerUnits="strokeWidth">
      <path d="M0,0 L0,6 L9,3 z" fill="#000" />
    </marker>
  </defs>

  <!-- Arrows showing integration -->
  <line x1="400" y1="140" x2="400" y2="160" stroke="#000" stroke-width="2" marker-end="url(#arrow)"/>
  <line x1="400" y1="220" x2="400" y2="240" stroke="#000" stroke-width="2" marker-end="url(#arrow)"/>
  <line x1="400" y1="300" x2="200" y2="320" stroke="#000" stroke-width="2" marker-end="url(#arrow)"/>
  <line x1="400" y1="300" x2="400" y2="320" stroke="#000" stroke-width="2" marker-end="url(#arrow)"/>
  <line x1="400" y1="300" x2="600" y2="320" stroke="#000" stroke-width="2" marker-end="url(#arrow)"/>
  <line x1="400" y1="380" x2="400" y2="400" stroke="#000" stroke-width="2" marker-end="url(#arrow)"/>

  <!-- Labels -->
  <text x="100" y="480" text-anchor="start" font-family="Arial" font-size="10">Physics Simulation</text>
  <text x="300" y="480" text-anchor="start" font-family="Arial" font-size="10">Photorealistic Rendering</text>
  <text x="500" y="480" text-anchor="start" font-family="Arial" font-size="10">High-Fidelity Visuals</text>
</svg>