<svg width="800" height="400" xmlns="http://www.w3.org/2000/svg">
  <!-- Title -->
  <text x="400" y="30" text-anchor="middle" font-family="Arial" font-size="20" font-weight="bold">VLA (Vision-Language-Action) Pipeline</text>

  <!-- Voice Input -->
  <rect x="50" y="100" width="120" height="80" fill="#e3f2fd" stroke="#1976d2" stroke-width="2" rx="10"/>
  <text x="110" y="140" text-anchor="middle" font-family="Arial" font-size="12">Voice</text>
  <text x="110" y="155" text-anchor="middle" font-family="Arial" font-size="10">Input</text>

  <!-- Vision Input -->
  <rect x="50" y="220" width="120" height="80" fill="#e8f5e8" stroke="#388e3c" stroke-width="2" rx="10"/>
  <text x="110" y="260" text-anchor="middle" font-family="Arial" font-size="12">Vision</text>
  <text x="110" y="275" text-anchor="middle" font-family="Arial" font-size="10">Input</text>

  <!-- Gesture Input -->
  <rect x="200" y="160" width="120" height="80" fill="#fff3e0" stroke="#f57c00" stroke-width="2" rx="10"/>
  <text x="260" y="200" text-anchor="middle" font-family="Arial" font-size="12">Gesture</text>
  <text x="260" y="215" text-anchor="middle" font-family="Arial" font-size="10">Input</text>

  <!-- Multi-Modal Fusion -->
  <rect x="350" y="160" width="150" height="80" fill="#f3e5f5" stroke="#7b1fa2" stroke-width="2" rx="10"/>
  <text x="425" y="190" text-anchor="middle" font-family="Arial" font-size="12" font-weight="bold">Multi-Modal</text>
  <text x="425" y="205" text-anchor="middle" font-family="Arial" font-size="12" font-weight="bold">Fusion</text>

  <!-- LLM Cognitive Planning -->
  <rect x="530" y="160" width="150" height="80" fill="#e0f7fa" stroke="#006064" stroke-width="2" rx="10"/>
  <text x="605" y="190" text-anchor="middle" font-family="Arial" font-size="12" font-weight="bold">LLM</text>
  <text x="605" y="205" text-anchor="middle" font-family="Arial" font-size="12" font-weight="bold">Planning</text>

  <!-- Robot Action -->
  <rect x="700" y="160" width="80" height="80" fill="#ffebee" stroke="#d32f2f" stroke-width="2" rx="10"/>
  <text x="740" y="190" text-anchor="middle" font-family="Arial" font-size="12" font-weight="bold">Robot</text>
  <text x="740" y="205" text-anchor="middle" font-family="Arial" font-size="12" font-weight="bold">Action</text>

  <!-- Arrows showing data flow -->
  <line x1="170" y1="140" x2="350" y2="170" stroke="#000" stroke-width="2" marker-end="url(#arrow)"/>
  <line x1="170" y1="260" x2="350" y2="210" stroke="#000" stroke-width="2" marker-end="url(#arrow)"/>
  <line x1="320" y1="200" x2="350" y2="200" stroke="#000" stroke-width="2" marker-end="url(#arrow)"/>
  <line x1="500" y1="200" x2="530" y2="200" stroke="#000" stroke-width="2" marker-end="url(#arrow)"/>
  <line x1="680" y1="200" x2="700" y2="200" stroke="#000" stroke-width="2" marker-end="url(#arrow)"/>

  <!-- Arrow marker definition -->
  <defs>
    <marker id="arrow" markerWidth="10" markerHeight="10" refX="6" refY="3" orient="auto" markerUnits="strokeWidth">
      <path d="M0,0 L0,6 L9,3 z" fill="#000" />
    </marker>
  </defs>
</svg>